<svg width="646" height="156" viewBox="0 0 646 156" fill="none" xmlns="http://www.w3.org/2000/svg">
<path d="M91.5773 0V30.8911C84.093 29.553 68.8212 28.1793 49.4906 33.7098C29.5445 39.4099 16.4404 50.4979 9.03644 58.6422V0H0.0714111V72.8433H9.03644C9.16133 72.6203 22.319 50.5246 51.8813 42.0771C71.0959 36.5822 85.9842 38.616 91.5773 39.7668V72.8433H100.542V0H91.5773Z" fill="white"/>
<path d="M118.579 65.6818C120.711 68.1171 123.361 70.0171 126.572 71.3998C129.766 72.7735 133.521 73.4604 137.839 73.4604C140.39 73.4604 142.897 73.166 145.367 72.5861C147.847 72.0063 150.095 71.0965 152.111 69.8565C154.145 68.6077 155.894 67.0467 157.374 65.111C158.837 63.1842 159.899 60.9184 160.505 58.3136H151.54C151.059 59.6874 150.336 60.8471 149.382 61.8194C148.427 62.7738 147.321 63.541 146.09 64.1208C144.859 64.7184 143.521 65.1199 142.12 65.3696C140.711 65.6016 139.364 65.7175 138.062 65.7175C135.377 65.7175 133.031 65.2983 130.997 64.4419C128.963 63.5856 127.268 62.3992 125.903 60.8916C124.529 59.3663 123.441 57.6179 122.656 55.584C121.862 53.5502 121.363 51.338 121.166 48.9384H161.442C161.514 48.314 161.558 47.6896 161.603 47.083C161.629 46.4586 161.647 45.8341 161.647 45.2276C161.79 42.489 161.46 39.4829 160.675 36.2627C159.881 33.0246 158.525 30.0273 156.598 27.2442C154.68 24.47 152.129 22.2131 148.989 20.5004C145.831 18.7877 142.085 17.9225 137.749 17.9225C133.414 17.9225 129.819 18.6183 126.724 19.9831C123.637 21.3568 121.024 23.2925 118.892 25.7545C116.777 28.2344 115.136 31.1602 114.003 34.5678C112.87 37.9575 112.308 41.6862 112.308 45.736C112.308 49.7858 112.817 53.5235 113.843 56.9132C114.869 60.3208 116.456 63.2377 118.588 65.6729L118.579 65.6818ZM122.799 35.3885C123.557 33.5063 124.583 31.8382 125.903 30.402C127.197 28.9658 128.82 27.824 130.729 27.0123C132.656 26.1827 134.895 25.7634 137.428 25.7634C142.022 25.7634 145.706 27.2174 148.454 30.0987C151.21 32.98 152.647 36.7265 152.789 41.3205H121.363C121.568 39.2599 122.041 37.2885 122.799 35.3885Z" fill="white"/>
<path d="M190.3 72.8418H196.169V65.215H192.155C188.034 65.215 185.313 64.3497 183.975 62.5924C182.628 60.8351 181.959 58.1144 181.959 54.4036V26.2867H196.49V18.5528H181.959V2.38025H173.199V55.3223C173.199 61.3703 174.502 65.7948 177.115 68.6047C179.729 71.4324 184.118 72.8418 190.3 72.8418Z" fill="white"/>
<path d="M14.8258 81.5498H0V154.482H42.2026V141.298H14.8258V81.5498Z" fill="white"/>
<path d="M98.2676 108.702C96.1624 105.713 93.3346 103.367 89.7665 101.637C86.1983 99.9241 81.9611 99.0677 77.0905 99.0677C72.8979 99.0677 69.1692 99.7457 65.9132 101.128C62.6483 102.493 59.9276 104.438 57.7332 106.944C55.5298 109.451 53.8349 112.43 52.6307 115.847C51.4264 119.281 50.8287 123.028 50.8287 127.086C50.8287 136.007 53.0767 142.947 57.5726 147.898C62.0685 152.839 68.7142 155.31 77.5098 155.31C80.3821 155.31 83.1386 155.016 85.7433 154.436C88.357 153.856 90.7299 152.902 92.9064 151.591C95.0652 150.288 96.9206 148.602 98.4639 146.542C100.016 144.481 101.158 142.046 101.916 139.236H86.6711C85.6987 140.743 84.4855 141.832 83.0137 142.483C81.5329 143.134 79.7666 143.455 77.706 143.455C73.7186 143.455 70.7302 142.34 68.741 140.101C66.7428 137.88 65.6099 135.142 65.3334 131.921H102.433C103.192 127.381 103.201 123.135 102.478 119.147C101.756 115.16 100.346 111.681 98.2587 108.693L98.2676 108.702ZM65.4493 121.939C65.7972 118.853 66.9836 116.355 69.0175 114.473C71.0335 112.573 73.8791 111.601 77.5187 111.529C79.0262 111.529 80.4803 111.735 81.8808 112.154C83.2991 112.555 84.5212 113.198 85.5471 114.054C86.5729 114.91 87.4025 116.007 88.0091 117.363C88.6336 118.701 88.9368 120.218 88.9368 121.948H65.4404L65.4493 121.939Z" fill="white"/>
<path d="M159.453 108.702C157.347 105.713 154.52 103.367 150.952 101.637C147.366 99.9241 143.146 99.0677 138.276 99.0677C134.083 99.0677 130.354 99.7457 127.098 101.128C123.833 102.493 121.113 104.438 118.909 106.944C116.724 109.451 115.02 112.43 113.816 115.847C112.611 119.281 112.005 123.028 112.005 127.086C112.005 136.007 114.271 142.947 118.767 147.898C123.262 152.839 129.908 155.31 138.695 155.31C141.585 155.31 144.333 155.016 146.946 154.436C149.542 153.856 151.933 152.902 154.092 151.591C156.25 150.288 158.106 148.602 159.658 146.542C161.192 144.481 162.352 142.046 163.11 139.236H147.865C146.893 140.743 145.68 141.832 144.199 142.483C142.718 143.134 140.961 143.455 138.891 143.455C134.921 143.455 131.933 142.34 129.944 140.101C127.946 137.88 126.813 135.142 126.536 131.921H163.619C164.377 127.381 164.404 123.135 163.681 119.147C162.958 115.16 161.549 111.681 159.462 108.693L159.453 108.702ZM126.634 121.939C126.982 118.853 128.169 116.355 130.185 114.473C132.219 112.573 135.046 111.601 138.686 111.529C140.193 111.529 141.656 111.735 143.066 112.154C144.475 112.555 145.688 113.198 146.723 114.054C147.749 114.91 148.579 116.007 149.203 117.363C149.828 118.701 150.131 120.218 150.131 121.948H126.634V121.939Z" fill="white"/>
<path d="M203.457 99.1759C199.952 99.1759 196.946 99.8271 194.439 101.129C191.932 102.432 189.577 104.394 187.392 106.999L186.562 100.202H173.164V154.482H187.695V130.076C187.695 127.462 187.882 125.134 188.257 123.073C188.632 121.013 189.622 119.086 191.201 117.302C192.227 116.196 193.404 115.357 194.751 114.778C196.089 114.198 197.481 113.761 198.917 113.484C200.371 113.208 201.888 113.065 203.502 113.02C205.126 112.993 206.722 112.976 208.301 112.976V99.5773C207.606 99.4435 206.847 99.3454 206.027 99.2741C205.215 99.2027 204.341 99.1759 203.457 99.1759Z" fill="white"/>
<path d="M215.812 112.877H224.046V154.482H238.577V100.201H215.812V112.877Z" fill="white"/>
<path d="M229.719 74.9594C226.963 74.9594 224.777 75.7532 223.118 77.3411C221.477 78.92 220.656 81.0073 220.656 83.621C220.656 86.3774 221.486 88.5182 223.118 90.0614C224.768 91.6136 226.963 92.3807 229.719 92.3807C232.333 92.3807 234.465 91.6136 236.097 90.0614C237.748 88.5271 238.577 86.3774 238.577 83.621C238.577 81.0073 237.748 78.92 236.097 77.3411C234.456 75.7622 232.324 74.9594 229.719 74.9594Z" fill="white"/>
<path d="M294.214 105.651C292.564 103.59 290.396 101.985 287.72 100.807C285.035 99.6476 281.948 99.0677 278.452 99.0677C271.984 99.0677 266.561 101.735 262.163 107.105L261.449 100.201H247.542V154.481H262.056V127.693C262.056 125.855 262.216 124.009 262.52 122.18C262.823 120.369 263.43 118.701 264.322 117.194C265.223 115.686 266.454 114.455 268.032 113.483C269.611 112.529 271.538 112.047 273.804 112.047C275.659 112.047 277.328 112.35 278.808 112.975C280.271 113.581 281.467 114.527 282.359 115.802C283.242 117.078 283.884 118.585 284.259 120.325C284.633 122.082 284.821 123.92 284.821 125.847V154.472H299.45V124.696C299.45 120.798 299.076 117.23 298.317 114.036C297.55 110.843 296.185 108.051 294.196 105.642L294.214 105.651Z" fill="white"/>
<path d="M352.625 126.063C350.35 124.609 347.692 123.628 344.632 123.075C341.59 122.522 338.54 122.005 335.524 121.523C334.757 121.389 333.812 121.22 332.679 121.015C331.546 120.809 330.458 120.533 329.432 120.185C328.067 119.766 326.898 119.186 325.935 118.428C324.98 117.669 324.526 116.715 324.597 115.546C324.597 114.521 324.891 113.673 325.471 113.022C326.051 112.371 326.791 111.889 327.692 111.586C328.575 111.265 329.548 111.06 330.583 110.961C331.608 110.863 332.536 110.801 333.348 110.801C334.722 110.801 336.006 110.89 337.166 111.059C338.343 111.229 339.387 111.568 340.315 112.041C341.242 112.522 341.983 113.183 342.536 114.039C343.089 114.895 343.392 116.01 343.464 117.393H357.157C357.157 114.307 356.595 111.622 355.462 109.356C354.329 107.09 352.768 105.208 350.778 103.682C348.78 102.175 346.461 101.042 343.776 100.293C341.091 99.5344 338.254 99.0884 335.221 98.9546C332.331 98.8833 329.494 99.0885 326.675 99.5613C323.848 100.043 321.27 100.926 318.888 102.184C316.524 103.459 314.57 105.172 313.018 107.331C311.484 109.507 310.565 112.13 310.289 115.216C310.155 118.579 310.708 121.291 311.939 123.352C313.17 125.412 314.784 127.089 316.783 128.401C318.701 129.578 320.815 130.417 323.116 130.925C325.409 131.451 327.799 131.969 330.261 132.522L339.226 134.279C340.877 134.627 342.17 135.153 343.098 135.876C344.026 136.598 344.418 137.571 344.275 138.82C344.213 139.908 343.856 140.791 343.205 141.442C342.554 142.093 341.742 142.584 340.788 142.932C339.833 143.262 338.816 143.494 337.746 143.601C336.684 143.699 335.703 143.761 334.82 143.761C333.589 143.69 332.286 143.512 330.904 143.235C329.53 142.959 328.281 142.539 327.148 141.942C326.006 141.362 325.034 140.577 324.204 139.578C323.375 138.579 322.866 137.357 322.67 135.92H308.442C308.442 139.765 309.352 143.11 311.181 145.956C312.991 148.81 315.659 151.094 319.155 152.815C321.635 153.975 324.16 154.805 326.729 155.278C329.307 155.759 331.938 156 334.615 156C337.291 156 340.252 155.724 343.116 155.17C345.961 154.617 348.584 153.636 350.993 152.182C353.526 150.603 355.462 148.614 356.764 146.206C358.066 143.797 358.682 141.13 358.619 138.168C358.619 135.688 358.173 133.423 357.272 131.371C356.389 129.31 354.837 127.526 352.643 126.019L352.625 126.063Z" fill="white"/>
<path d="M382.259 100.2H382.089V85.4636H367.558V136.657C367.558 142.777 369.128 147.344 372.241 150.359C375.372 153.392 380.537 154.757 387.745 154.48H394.542V141.822H389.19C384.444 141.822 382.08 139.485 382.08 134.82V112.876H403.534V154.48H418.065V100.2H382.25H382.259Z" fill="white"/>
<path d="M409.252 74.9594C406.496 74.9594 404.31 75.7532 402.651 77.3411C401.001 78.92 400.171 81.0073 400.171 83.621C400.171 86.3774 401.001 88.5182 402.651 90.0614C404.301 91.6136 406.496 92.3807 409.252 92.3807C411.866 92.3807 413.98 91.6136 415.63 90.0614C417.28 88.5271 418.092 86.3774 418.092 83.621C418.092 81.0073 417.28 78.92 415.63 77.3411C413.98 75.7622 411.857 74.9594 409.252 74.9594Z" fill="white"/>
<path d="M441.588 85.4636H427.057V136.657C427.057 142.777 428.627 147.344 431.758 150.359C434.88 153.392 440.036 154.757 447.262 154.48H454.059V141.822H448.698C443.952 141.822 441.588 139.485 441.588 134.82V112.876H454.567V100.2H441.588V85.4636Z" fill="white"/>
<path d="M500.258 126.16C500.258 128.291 500.169 130.281 499.999 132.136C499.821 133.992 499.259 135.704 498.305 137.283C497.35 138.996 495.985 140.316 494.228 141.199C492.488 142.1 490.606 142.502 488.617 142.43C486.485 142.502 484.701 142.198 483.265 141.502C481.811 140.825 480.687 139.924 479.857 138.835C478.903 137.462 478.26 135.936 477.957 134.241C477.654 132.573 477.493 130.762 477.493 128.845V100.201H462.962V130.281C462.962 133.849 463.238 137.078 463.791 139.968C464.344 142.858 465.397 145.463 466.985 147.8C468.564 150.137 470.767 151.966 473.586 153.313C476.396 154.651 479.866 155.311 483.996 155.311C487.288 155.311 490.374 154.758 493.264 153.67C496.155 152.564 498.661 150.467 500.775 147.372L501.703 154.482H514.781V100.201H500.267V126.16H500.258Z" fill="white"/>
<path d="M561.042 126.16C561.042 128.291 560.953 130.281 560.783 132.136C560.605 133.992 560.043 135.704 559.088 137.283C558.134 138.996 556.769 140.316 555.012 141.199C553.272 142.1 551.39 142.502 549.401 142.43C547.269 142.502 545.485 142.198 544.049 141.502C542.595 140.825 541.471 139.924 540.641 138.835C539.687 137.462 539.044 135.936 538.741 134.241C538.438 132.573 538.277 130.762 538.277 128.845V100.201H523.746V130.281C523.746 133.849 524.022 137.078 524.575 139.968C525.128 142.858 526.199 145.463 527.769 147.8C529.348 150.137 531.551 151.966 534.37 153.313C537.18 154.651 540.65 155.311 544.78 155.311C548.072 155.311 551.158 154.758 554.048 153.67C556.939 152.564 559.445 150.467 561.559 147.372L562.487 154.482H575.565V100.201H561.051V126.16H561.042Z" fill="white"/>
<path d="M599.052 85.4636H584.521V136.657C584.521 142.777 586.091 147.344 589.222 150.359C592.344 153.392 597.5 154.757 604.726 154.48H611.514V141.822H606.162C601.416 141.822 599.052 139.485 599.052 134.82V112.876H612.031V100.2H599.052V85.4636Z" fill="white"/>
<path d="M644.225 91.9885C643.038 89.9636 641.424 88.3758 639.381 87.2072C637.338 86.0476 635.046 85.4589 632.503 85.4589C629.961 85.4589 627.731 86.0386 625.688 87.2072C623.645 88.3668 622.031 89.9725 620.844 92.0153C619.658 94.058 619.069 96.3327 619.069 98.8304C619.069 101.328 619.658 103.514 620.844 105.512C622.031 107.51 623.645 109.098 625.688 110.257C627.731 111.417 630.006 112.006 632.503 112.006C635.001 112.006 637.338 111.426 639.381 110.257C641.424 109.098 643.038 107.51 644.225 105.512C645.411 103.514 646 101.257 646 98.759C646 96.2613 645.411 94.0045 644.225 91.9796V91.9885ZM641.736 104.236C640.835 105.851 639.568 107.117 637.954 108.045C636.339 108.973 634.519 109.437 632.494 109.437C630.469 109.437 628.712 108.982 627.098 108.081C625.483 107.18 624.225 105.913 623.315 104.299C622.414 102.684 621.959 100.864 621.959 98.8393C621.959 96.8144 622.414 94.9233 623.315 93.2819C624.216 91.6495 625.483 90.365 627.098 89.4373C628.712 88.5096 630.514 88.0457 632.494 88.0457C634.475 88.0457 636.339 88.5096 637.954 89.4373C639.568 90.365 640.826 91.6406 641.736 93.2819C642.637 94.9144 643.092 96.752 643.092 98.768C643.092 100.784 642.637 102.613 641.736 104.227V104.236Z" fill="white"/>
<path d="M637.856 98.7734C638.463 98.042 638.757 97.141 638.757 96.0616C638.757 94.6879 638.24 93.5639 637.205 92.7076C636.17 91.8423 634.796 91.4142 633.075 91.4142H627.455V106.142H630.301V100.914H632.557L635.662 106.142H638.828L635.341 100.326C636.42 100.022 637.258 99.5049 637.856 98.7734ZM632.95 98.5147H630.301V93.7959H632.95C633.806 93.7959 634.502 93.9922 635.019 94.3757C635.537 94.7593 635.796 95.3212 635.796 96.0527C635.796 96.8288 635.528 97.4265 634.993 97.8636C634.457 98.2917 633.779 98.5058 632.959 98.5058L632.95 98.5147Z" fill="white"/>
</svg>
