<svg width="634" height="153" viewBox="0 0 634 153" fill="none" xmlns="http://www.w3.org/2000/svg">
<path d="M89.876 0V30.2973C82.5308 28.985 67.5427 27.6377 48.5712 33.062C28.9957 38.6525 16.135 49.5274 8.86856 57.5151V0H0.0700684V71.4433H8.86856C8.99112 71.2245 21.9044 49.5536 50.9175 41.2684C69.7752 35.8791 84.3868 37.8738 89.876 39.0024V71.4433H98.6745V0H89.876Z" fill="black"/>
<path d="M116.377 64.4177C118.469 66.8062 121.069 68.6697 124.221 70.0258C127.355 71.3731 131.041 72.0468 135.278 72.0468C137.782 72.0468 140.242 71.758 142.667 71.1893C145.101 70.6207 147.307 69.7283 149.286 68.5122C151.282 67.2873 152.998 65.7563 154.451 63.8578C155.887 61.9681 156.929 59.7458 157.524 57.1911H148.725C148.253 58.5385 147.543 59.6759 146.607 60.6295C145.67 61.5656 144.584 62.318 143.376 62.8867C142.168 63.4728 140.855 63.8666 139.48 64.1115C138.097 64.339 136.775 64.4527 135.497 64.4527C132.862 64.4527 130.559 64.0416 128.563 63.2017C126.567 62.3618 124.904 61.1981 123.564 59.7196C122.216 58.2235 121.148 56.5087 120.378 54.514C119.598 52.5192 119.108 50.3495 118.915 47.9961H158.443C158.513 47.3837 158.557 46.7713 158.601 46.1763C158.627 45.5639 158.644 44.9515 158.644 44.3566C158.785 41.6707 158.461 38.7223 157.69 35.564C156.911 32.3881 155.58 29.4485 153.689 26.7188C151.807 23.9979 149.303 21.7845 146.221 20.1047C143.122 18.4249 139.445 17.5763 135.191 17.5763C130.936 17.5763 127.408 18.2587 124.37 19.5973C121.341 20.9446 118.775 22.8431 116.683 25.2578C114.608 27.69 112.997 30.5596 111.885 33.9017C110.774 37.2263 110.222 40.8833 110.222 44.8553C110.222 48.8272 110.721 52.493 111.728 55.8176C112.735 59.1597 114.293 62.0205 116.385 64.409L116.377 64.4177ZM120.518 34.7066C121.262 32.8606 122.269 31.2245 123.564 29.816C124.834 28.4074 126.427 27.2875 128.301 26.4914C130.192 25.6777 132.389 25.2666 134.875 25.2666C139.384 25.2666 143 26.6926 145.696 29.5185C148.401 32.3444 149.811 36.0189 149.951 40.5246H119.108C119.309 38.5036 119.773 36.5701 120.518 34.7066Z" fill="black"/>
<path d="M186.765 71.443H192.525V63.9628H188.586C184.541 63.9628 181.871 63.1141 180.558 61.3906C179.236 59.6671 178.579 56.9987 178.579 53.3591V25.7827H192.84V18.1974H178.579V2.33569H169.982V54.2602C169.982 60.192 171.26 64.5314 173.825 67.2873C176.39 70.0607 180.698 71.443 186.765 71.443Z" fill="black"/>
<path d="M14.5503 79.9824H0V151.513H41.4186V138.582H14.5503V79.9824Z" fill="black"/>
<path d="M96.4422 106.614C94.376 103.683 91.6008 101.382 88.0989 99.6845C84.597 98.0048 80.4385 97.1649 75.6584 97.1649C71.5437 97.1649 67.8842 97.8298 64.6888 99.1858C61.4845 100.524 58.8143 102.432 56.6607 104.89C54.4983 107.349 52.8349 110.271 51.653 113.621C50.4711 116.99 49.8845 120.664 49.8845 124.645C49.8845 133.394 52.0907 140.201 56.5031 145.056C60.9155 149.903 67.4377 152.327 76.0699 152.327C78.8889 152.327 81.5941 152.038 84.1505 151.469C86.7156 150.9 89.0444 149.964 91.1806 148.678C93.2992 147.401 95.1202 145.747 96.6348 143.726C98.1581 141.705 99.2787 139.317 100.023 136.561H85.061C84.1067 138.04 82.9161 139.107 81.4716 139.746C80.0183 140.384 78.2848 140.699 76.2625 140.699C72.3491 140.699 69.4163 139.606 67.464 137.41C65.503 135.231 64.3911 132.545 64.1197 129.387H100.531C101.275 124.934 101.284 120.769 100.574 116.859C99.8653 112.948 98.482 109.536 96.4334 106.605L96.4422 106.614ZM64.2335 119.597C64.5749 116.57 65.7393 114.12 67.7354 112.274C69.714 110.411 72.5067 109.457 76.0787 109.387C77.5582 109.387 78.9852 109.588 80.3597 109.999C81.7517 110.393 82.9511 111.023 83.9579 111.863C84.9647 112.703 85.7789 113.779 86.3742 115.109C86.9871 116.421 87.2847 117.908 87.2847 119.606H64.2248L64.2335 119.597Z" fill="black"/>
<path d="M156.491 106.614C154.424 103.683 151.649 101.382 148.147 99.6845C144.628 98.0048 140.487 97.1649 135.707 97.1649C131.592 97.1649 127.933 97.8298 124.737 99.1858C121.533 100.524 118.863 102.432 116.7 104.89C114.555 107.349 112.883 110.271 111.701 113.621C110.52 116.99 109.924 120.664 109.924 124.645C109.924 133.394 112.148 140.201 116.56 145.056C120.973 149.903 127.495 152.327 136.118 152.327C138.955 152.327 141.651 152.038 144.216 151.469C146.764 150.9 149.11 149.964 151.229 148.678C153.348 147.401 155.169 145.747 156.692 143.726C158.198 141.705 159.336 139.317 160.08 136.561H145.118C144.164 138.04 142.973 139.107 141.52 139.746C140.067 140.384 138.342 140.699 136.311 140.699C132.415 140.699 129.482 139.606 127.53 137.41C125.569 135.231 124.457 132.545 124.186 129.387H160.579C161.323 124.934 161.349 120.769 160.64 116.859C159.931 112.948 158.548 109.536 156.499 106.605L156.491 106.614ZM124.282 119.597C124.623 116.57 125.788 114.12 127.766 112.274C129.762 110.411 132.538 109.457 136.11 109.387C137.589 109.387 139.025 109.588 140.408 109.999C141.791 110.393 142.982 111.023 143.998 111.863C145.004 112.703 145.819 113.779 146.431 115.109C147.044 116.421 147.342 117.908 147.342 119.606H124.282V119.597Z" fill="black"/>
<path d="M199.678 97.2698C196.237 97.2698 193.287 97.9085 190.827 99.1858C188.366 100.463 186.055 102.388 183.91 104.943L183.096 98.276H169.947V151.513H184.208V127.576C184.208 125.013 184.392 122.729 184.76 120.708C185.127 118.687 186.099 116.797 187.649 115.048C188.655 113.963 189.811 113.14 191.133 112.572C192.446 112.003 193.812 111.574 195.221 111.303C196.648 111.032 198.137 110.892 199.721 110.848C201.315 110.822 202.882 110.804 204.431 110.804V97.6635C203.749 97.5323 203.004 97.4361 202.199 97.3661C201.402 97.2961 200.544 97.2698 199.678 97.2698Z" fill="black"/>
<path d="M211.803 110.708H219.884V151.513H234.145V98.2762H211.803V110.708Z" fill="black"/>
<path d="M225.452 73.517C222.746 73.517 220.601 74.2956 218.973 75.8529C217.362 77.4015 216.557 79.4487 216.557 82.0121C216.557 84.7155 217.371 86.8152 218.973 88.3288C220.593 89.8511 222.746 90.6035 225.452 90.6035C228.017 90.6035 230.109 89.8511 231.711 88.3288C233.331 86.824 234.145 84.7155 234.145 82.0121C234.145 79.4487 233.331 77.4015 231.711 75.8529C230.1 74.3044 228.008 73.517 225.452 73.517Z" fill="black"/>
<path d="M288.748 103.622C287.129 101.601 285.001 100.026 282.375 98.8709C279.74 97.7335 276.711 97.1649 273.279 97.1649C266.932 97.1649 261.609 99.7808 257.293 105.048L256.592 98.276H242.944V151.513H257.188V125.24C257.188 123.438 257.345 121.627 257.643 119.833C257.941 118.057 258.536 116.421 259.411 114.943C260.296 113.464 261.504 112.257 263.053 111.303C264.603 110.367 266.494 109.895 268.718 109.895C270.539 109.895 272.176 110.192 273.629 110.804C275.065 111.399 276.238 112.327 277.113 113.578C277.98 114.829 278.61 116.307 278.978 118.013C279.346 119.737 279.53 121.539 279.53 123.429V151.504H293.887V122.3C293.887 118.477 293.52 114.978 292.776 111.845C292.023 108.713 290.683 105.975 288.731 103.613L288.748 103.622Z" fill="black"/>
<path d="M346.074 123.639C343.842 122.213 341.233 121.25 338.23 120.708C335.245 120.166 332.251 119.658 329.291 119.186C328.539 119.054 327.611 118.888 326.499 118.687C325.387 118.486 324.319 118.215 323.312 117.873C321.973 117.462 320.826 116.893 319.88 116.15C318.943 115.406 318.497 114.47 318.567 113.324C318.567 112.318 318.856 111.487 319.425 110.848C319.994 110.209 320.721 109.737 321.605 109.439C322.472 109.124 323.426 108.923 324.441 108.827C325.448 108.731 326.359 108.67 327.155 108.67C328.504 108.67 329.764 108.757 330.902 108.923C332.058 109.089 333.082 109.422 333.993 109.886C334.903 110.358 335.63 111.005 336.173 111.845C336.716 112.685 337.013 113.779 337.083 115.135H350.522C350.522 112.108 349.97 109.474 348.858 107.252C347.746 105.03 346.214 103.184 344.262 101.688C342.301 100.209 340.025 99.0982 337.39 98.3633C334.754 97.6197 331.97 97.1822 328.994 97.051C326.157 96.981 323.373 97.1823 320.607 97.6459C317.832 98.1184 315.301 98.9845 312.964 100.218C310.644 101.469 308.727 103.149 307.203 105.266C305.698 107.401 304.796 109.973 304.524 113C304.393 116.299 304.936 118.958 306.144 120.979C307.352 123 308.937 124.645 310.898 125.931C312.78 127.086 314.855 127.908 317.114 128.407C319.364 128.923 321.71 129.431 324.126 129.973L332.925 131.697C334.544 132.038 335.814 132.554 336.724 133.263C337.635 133.971 338.02 134.925 337.88 136.15C337.819 137.217 337.468 138.083 336.829 138.722C336.19 139.361 335.394 139.842 334.457 140.183C333.52 140.507 332.522 140.734 331.471 140.839C330.43 140.935 329.467 140.997 328.6 140.997C327.392 140.927 326.114 140.752 324.757 140.48C323.408 140.209 322.183 139.798 321.071 139.212C319.95 138.643 318.996 137.873 318.182 136.893C317.368 135.913 316.869 134.715 316.676 133.306H302.712C302.712 137.077 303.605 140.358 305.4 143.149C307.177 145.948 309.795 148.188 313.227 149.877C315.66 151.014 318.138 151.828 320.659 152.291C323.189 152.764 325.772 153 328.399 153C331.025 153 333.932 152.729 336.742 152.186C339.535 151.644 342.108 150.682 344.472 149.256C346.959 147.707 348.858 145.756 350.136 143.394C351.415 141.032 352.019 138.416 351.957 135.511C351.957 133.079 351.52 130.857 350.636 128.844C349.769 126.823 348.245 125.074 346.092 123.595L346.074 123.639Z" fill="black"/>
<path d="M375.158 98.2759H374.991V83.8228H360.73V134.033C360.73 140.034 362.271 144.514 365.326 147.471C368.399 150.445 373.468 151.784 380.542 151.513H387.213V139.098H381.96C377.302 139.098 374.982 136.806 374.982 132.23V110.708H396.038V151.513H410.299V98.2759H375.149H375.158Z" fill="black"/>
<path d="M401.649 73.517C398.944 73.517 396.799 74.2956 395.171 75.8529C393.551 77.4015 392.737 79.4487 392.737 82.0121C392.737 84.7155 393.551 86.8152 395.171 88.3288C396.79 89.8511 398.944 90.6035 401.649 90.6035C404.215 90.6035 406.289 89.8511 407.909 88.3288C409.529 86.824 410.325 84.7155 410.325 82.0121C410.325 79.4487 409.529 77.4015 407.909 75.8529C406.289 74.3044 404.206 73.517 401.649 73.517Z" fill="black"/>
<path d="M433.385 83.8228H419.124V134.033C419.124 140.034 420.664 144.514 423.737 147.471C426.801 150.445 431.862 151.784 438.953 151.513H445.624V139.098H440.362C435.705 139.098 433.385 136.806 433.385 132.23V110.708H446.123V98.2759H433.385V83.8228Z" fill="black"/>
<path d="M490.965 123.735C490.965 125.826 490.877 127.777 490.711 129.597C490.536 131.417 489.984 133.097 489.048 134.645C488.111 136.325 486.771 137.62 485.047 138.486C483.34 139.37 481.492 139.763 479.54 139.693C477.448 139.763 475.697 139.466 474.287 138.783C472.86 138.119 471.757 137.235 470.943 136.168C470.006 134.82 469.376 133.324 469.078 131.662C468.78 130.026 468.623 128.25 468.623 126.369V98.2762H454.361V127.777C454.361 131.277 454.633 134.444 455.176 137.279C455.718 140.113 456.751 142.668 458.31 144.96C459.859 147.252 462.022 149.046 464.788 150.367C467.546 151.679 470.952 152.327 475.005 152.327C478.236 152.327 481.265 151.784 484.101 150.717C486.938 149.632 489.398 147.576 491.473 144.54L492.383 151.513H505.218V98.2762H490.974V123.735H490.965Z" fill="black"/>
<path d="M550.62 123.735C550.62 125.826 550.532 127.777 550.366 129.597C550.191 131.417 549.639 133.097 548.702 134.645C547.766 136.325 546.426 137.62 544.702 138.486C542.994 139.37 541.147 139.763 539.195 139.693C537.102 139.763 535.352 139.466 533.942 138.783C532.515 138.119 531.412 137.235 530.598 136.168C529.661 134.82 529.031 133.324 528.733 131.662C528.435 130.026 528.278 128.25 528.278 126.369V98.2762H514.016V127.777C514.016 131.277 514.288 134.444 514.83 137.279C515.373 140.113 516.424 142.668 517.965 144.96C519.514 147.252 521.677 149.046 524.443 150.367C527.201 151.679 530.606 152.327 534.66 152.327C537.89 152.327 540.92 151.784 543.756 150.717C546.593 149.632 549.053 147.576 551.128 144.54L552.038 151.513H564.872V98.2762H550.629V123.735H550.62Z" fill="black"/>
<path d="M587.924 83.8228H573.662V134.033C573.662 140.034 575.203 144.514 578.276 147.471C581.34 150.445 586.401 151.784 593.492 151.513H600.154V139.098H594.901C590.244 139.098 587.924 136.806 587.924 132.23V110.708H600.662V98.2759H587.924V83.8228Z" fill="black"/>
<path d="M632.258 90.2182C631.093 88.2322 629.509 86.6749 627.504 85.5288C625.499 84.3915 623.249 83.8141 620.754 83.8141C618.259 83.8141 616.07 84.3827 614.065 85.5288C612.061 86.6662 610.476 88.241 609.312 90.2445C608.147 92.248 607.569 94.4789 607.569 96.9286C607.569 99.3783 608.147 101.522 609.312 103.482C610.476 105.441 612.061 106.999 614.065 108.136C616.07 109.273 618.303 109.851 620.754 109.851C623.205 109.851 625.499 109.282 627.504 108.136C629.509 106.999 631.093 105.441 632.258 103.482C633.422 101.522 634 99.3083 634 96.8586C634 94.4089 633.422 92.1955 632.258 90.2095V90.2182ZM629.815 102.23C628.931 103.814 627.688 105.056 626.103 105.966C624.519 106.876 622.733 107.331 620.745 107.331C618.758 107.331 617.033 106.885 615.449 106.001C613.864 105.118 612.63 103.875 611.737 102.292C610.852 100.708 610.406 98.9234 610.406 96.9374C610.406 94.9514 610.852 93.0966 611.737 91.4868C612.621 89.8858 613.864 88.6259 615.449 87.716C617.033 86.8062 618.802 86.3512 620.745 86.3512C622.689 86.3512 624.519 86.8062 626.103 87.716C627.688 88.6259 628.922 89.877 629.815 91.4868C630.699 93.0879 631.146 94.8901 631.146 96.8674C631.146 98.8446 630.699 100.638 629.815 102.222V102.23Z" fill="black"/>
<path d="M626.007 96.8763C626.602 96.1589 626.891 95.2752 626.891 94.2166C626.891 92.8692 626.383 91.7669 625.368 90.927C624.352 90.0784 623.004 89.6584 621.314 89.6584H615.799V104.103H618.592V98.976H620.807L623.853 104.103H626.961L623.538 98.3986C624.597 98.1011 625.42 97.5937 626.007 96.8763ZM621.192 96.6225H618.592V91.9944H621.192C622.032 91.9944 622.715 92.1869 623.223 92.5631C623.731 92.9393 623.985 93.4904 623.985 94.2078C623.985 94.969 623.722 95.5552 623.197 95.9839C622.671 96.4038 622.006 96.6138 621.2 96.6138L621.192 96.6225Z" fill="black"/>
</svg>
