<svg width="1440" height="1024" viewBox="0 0 1440 1024" fill="none" xmlns="http://www.w3.org/2000/svg" font-family="Onest, 'Onest', 'Helvetica Neue', Arial, sans-serif"><defs><filter id="soft" x="-30%" y="-30%" width="160%" height="160%"><feDropShadow dx="0" dy="8" stdDeviation="16" flood-color="#16323b" flood-opacity="0.07"/></filter><filter id="soft2" x="-40%" y="-40%" width="180%" height="180%"><feDropShadow dx="0" dy="3" stdDeviation="7" flood-color="#16323b" flood-opacity="0.10"/></filter></defs>
<rect x="0" y="0" width="1440" height="1024" rx="0" fill="#EDF3F5"/>
<g id="Sidebar">
<rect x="0" y="0" width="252" height="1024" rx="0" fill="#FFFFFF"/>
<line x1="252" y1="0" x2="252" y2="1024" stroke="#E4ECEE" stroke-width="1.5"/>
<g id="sidebar_logo" transform="translate(28,30) scale(0.16)"><path d="M89.8761 0V30.4953C82.5308 29.1744 67.5427 27.8183 48.5712 33.278C28.9957 38.9051 16.135 49.851 8.86856 57.8909V0H0.0700684V71.9101H8.86856C8.99112 71.69 21.9044 49.8774 50.9175 41.5381C69.7752 36.1136 84.3868 38.1213 89.8761 39.2573V71.9101H98.6745V0H89.8761Z" fill="#38C9A6"/><path d="M116.377 64.8386C118.469 67.2426 121.069 69.1183 124.221 70.4833C127.355 71.8394 131.041 72.5175 135.278 72.5175C137.782 72.5175 140.242 72.2268 142.667 71.6544C145.101 71.082 147.307 70.1838 149.286 68.9598C151.282 67.7269 152.998 66.1859 154.451 64.275C155.887 62.3729 156.929 60.1361 157.524 57.5648H148.725C148.253 58.9209 147.544 60.0657 146.607 61.0256C145.67 61.9678 144.584 62.7251 143.376 63.2975C142.168 63.8875 140.855 64.2838 139.48 64.5304C138.097 64.7593 136.775 64.8738 135.497 64.8738C132.862 64.8738 130.559 64.4599 128.563 63.6146C126.567 62.7692 124.904 61.5979 123.564 60.1097C122.216 58.6039 121.148 56.8779 120.378 54.8701C119.598 52.8623 119.108 50.6785 118.916 48.3096H158.443C158.513 47.6932 158.557 47.0768 158.601 46.478C158.627 45.8616 158.645 45.2451 158.645 44.6463C158.785 41.9429 158.461 38.9752 157.69 35.7963C156.911 32.5997 155.58 29.6408 153.689 26.8933C151.807 24.1547 149.303 21.9267 146.222 20.236C143.122 18.5452 139.445 17.691 135.191 17.691C130.936 17.691 127.408 18.3779 124.37 19.7252C121.341 21.0814 118.776 22.9923 116.683 25.4227C114.608 27.8708 112.997 30.7592 111.886 34.1231C110.774 37.4694 110.222 41.1503 110.222 45.1483C110.222 49.1462 110.721 52.836 111.728 56.1823C112.735 59.5462 114.293 62.4257 116.386 64.8297L116.377 64.8386ZM120.518 34.9333C121.262 33.0752 122.269 31.4285 123.564 30.0107C124.834 28.5929 126.427 27.4657 128.301 26.6644C130.192 25.8454 132.389 25.4316 134.875 25.4316C139.384 25.4316 143 26.8669 145.696 29.7113C148.402 32.5556 149.811 36.2542 149.951 40.7893H119.108C119.31 38.7551 119.774 36.8089 120.518 34.9333Z" fill="#38C9A6"/><path d="M186.765 71.9099H192.525V64.3807H188.586C184.541 64.3807 181.871 63.5265 180.558 61.7918C179.236 60.057 178.579 57.3711 178.579 53.7078V25.9512H192.841V18.3163H178.579V2.35095H169.982V54.6148C169.982 60.5853 171.26 64.9531 173.825 67.727C176.39 70.5185 180.698 71.9099 186.765 71.9099Z" fill="#38C9A6"/><path d="M14.5504 80.5048H0V152.503H41.4186V139.488H14.5504V80.5048Z" fill="#0E6A8C"/><path d="M96.4423 107.31C94.3762 104.36 91.6009 102.044 88.099 100.336C84.5971 98.6453 80.4386 97.7999 75.6585 97.7999C71.5438 97.7999 67.8844 98.4692 64.6889 99.8341C61.4847 101.181 58.8145 103.101 56.6608 105.576C54.4984 108.05 52.835 110.991 51.6531 114.364C50.4712 117.754 49.8846 121.453 49.8846 125.46C49.8846 134.266 52.0908 141.117 56.5032 146.004C60.9156 150.883 67.4379 153.322 76.07 153.322C78.889 153.322 81.5943 153.031 84.1506 152.459C86.7158 151.887 89.0445 150.944 91.1807 149.65C93.2993 148.364 95.1203 146.7 96.6349 144.666C98.1582 142.632 99.2788 140.227 100.023 137.454H85.0611C84.1069 138.942 82.9162 140.016 81.4717 140.659C80.0184 141.302 78.285 141.619 76.2626 141.619C72.3493 141.619 69.4164 140.518 67.4641 138.308C65.5031 136.115 64.3912 133.412 64.1198 130.233H100.531C101.275 125.75 101.284 121.559 100.575 117.622C99.8654 113.686 98.4821 110.252 96.4335 107.302L96.4423 107.31ZM64.2336 120.379C64.5751 117.332 65.7395 114.866 67.7355 113.008C69.7141 111.132 72.5069 110.172 76.0788 110.102C77.5583 110.102 78.9854 110.305 80.3599 110.718C81.7519 111.115 82.9512 111.749 83.958 112.594C84.9648 113.439 85.779 114.523 86.3743 115.861C86.9872 117.182 87.2848 118.679 87.2848 120.387H64.2249L64.2336 120.379Z" fill="#0E6A8C"/><path d="M156.491 107.31C154.425 104.36 151.649 102.044 148.147 100.336C144.628 98.6453 140.487 97.7999 135.707 97.7999C131.592 97.7999 127.933 98.4692 124.737 99.8341C121.533 101.181 118.863 103.101 116.7 105.576C114.556 108.05 112.883 110.991 111.702 114.364C110.52 117.754 109.924 121.453 109.924 125.46C109.924 134.266 112.148 141.117 116.56 146.004C120.973 150.883 127.495 153.322 136.118 153.322C138.955 153.322 141.651 153.031 144.217 152.459C146.764 151.887 149.11 150.944 151.229 149.65C153.348 148.364 155.169 146.7 156.692 144.666C158.198 142.632 159.336 140.227 160.08 137.454H145.118C144.164 138.942 142.973 140.016 141.52 140.659C140.067 141.302 138.342 141.619 136.311 141.619C132.415 141.619 129.482 140.518 127.53 138.308C125.569 136.115 124.457 133.412 124.186 130.233H160.579C161.323 125.75 161.35 121.559 160.64 117.622C159.931 113.686 158.548 110.252 156.499 107.302L156.491 107.31ZM124.282 120.379C124.623 117.332 125.788 114.866 127.766 113.008C129.763 111.132 132.538 110.172 136.11 110.102C137.589 110.102 139.025 110.305 140.408 110.718C141.792 111.115 142.982 111.749 143.998 112.594C145.005 113.439 145.819 114.523 146.432 115.861C147.044 117.182 147.342 118.679 147.342 120.387H124.282V120.379Z" fill="#0E6A8C"/><path d="M199.678 97.9053C196.237 97.9053 193.287 98.5481 190.827 99.8338C188.367 101.119 186.056 103.057 183.911 105.628L183.096 98.918H169.947V152.503H184.208V128.409C184.208 125.829 184.392 123.531 184.76 121.497C185.128 119.462 186.099 117.56 187.649 115.799C188.656 114.707 189.811 113.879 191.133 113.307C192.447 112.735 193.812 112.303 195.222 112.03C196.649 111.757 198.137 111.616 199.722 111.572C201.315 111.546 202.882 111.528 204.432 111.528V98.3016C203.749 98.1695 203.005 98.0726 202.199 98.0022C201.403 97.9317 200.545 97.9053 199.678 97.9053Z" fill="#0E6A8C"/><path d="M211.803 111.431H219.884V152.503H234.145V98.918H211.803V111.431Z" fill="#0E6A8C"/><path d="M225.452 73.9969C222.746 73.9969 220.602 74.7807 218.973 76.3481C217.362 77.9068 216.557 79.9675 216.557 82.5476C216.557 85.2687 217.371 87.3821 218.973 88.9056C220.593 90.4378 222.746 91.1951 225.452 91.1951C228.017 91.1951 230.109 90.4378 231.711 88.9056C233.331 87.3909 234.145 85.2687 234.145 82.5476C234.145 79.9675 233.331 77.9068 231.711 76.3481C230.1 74.7895 228.008 73.9969 225.452 73.9969Z" fill="#0E6A8C"/><path d="M288.748 104.299C287.129 102.265 285.001 100.68 282.375 99.5171C279.74 98.3723 276.711 97.7999 273.279 97.7999C266.932 97.7999 261.609 100.433 257.293 105.734L256.592 98.9183H242.944V152.503H257.188V126.059C257.188 124.244 257.345 122.422 257.643 120.616C257.941 118.829 258.536 117.182 259.411 115.694C260.296 114.206 261.504 112.99 263.053 112.031C264.603 111.088 266.494 110.613 268.718 110.613C270.539 110.613 272.176 110.912 273.629 111.529C275.065 112.127 276.238 113.061 277.113 114.32C277.98 115.579 278.61 117.068 278.978 118.785C279.346 120.52 279.53 122.334 279.53 124.236V152.494H293.887V123.1C293.887 119.251 293.52 115.729 292.776 112.576C292.023 109.424 290.683 106.668 288.731 104.29L288.748 104.299Z" fill="#0E6A8C"/><path d="M346.074 124.447C343.842 123.012 341.233 122.043 338.23 121.497C335.245 120.951 332.251 120.44 329.291 119.965C328.539 119.833 327.611 119.665 326.499 119.463C325.387 119.26 324.319 118.987 323.312 118.644C321.973 118.23 320.826 117.658 319.88 116.909C318.943 116.16 318.497 115.218 318.567 114.065C318.567 113.052 318.856 112.215 319.425 111.573C319.994 110.93 320.721 110.454 321.605 110.155C322.472 109.838 323.426 109.635 324.441 109.538C325.448 109.441 326.359 109.38 327.155 109.38C328.504 109.38 329.764 109.468 330.902 109.635C332.058 109.803 333.082 110.137 333.993 110.604C334.903 111.079 335.63 111.731 336.173 112.576C336.716 113.422 337.013 114.523 337.083 115.888H350.522C350.522 112.841 349.97 110.19 348.858 107.953C347.746 105.717 346.214 103.858 344.262 102.353C342.301 100.864 340.025 99.746 337.39 99.0063C334.754 98.2578 331.97 97.8175 328.994 97.6854C326.157 97.615 323.373 97.8175 320.607 98.2843C317.832 98.7598 315.301 99.6316 312.964 100.873C310.644 102.133 308.727 103.823 307.203 105.954C305.698 108.103 304.796 110.692 304.524 113.739C304.393 117.059 304.936 119.736 306.144 121.77C307.352 123.804 308.937 125.46 310.898 126.754C312.78 127.917 314.855 128.744 317.114 129.246C319.364 129.766 321.71 130.277 324.126 130.823L332.925 132.557C334.544 132.901 335.814 133.42 336.724 134.134C337.635 134.847 338.02 135.807 337.88 137.04C337.819 138.114 337.468 138.986 336.829 139.629C336.19 140.271 335.394 140.756 334.457 141.099C333.52 141.425 332.522 141.654 331.471 141.76C330.43 141.857 329.467 141.918 328.6 141.918C327.392 141.848 326.114 141.672 324.757 141.399C323.408 141.126 322.183 140.712 321.071 140.122C319.95 139.549 318.996 138.774 318.182 137.788C317.368 136.802 316.869 135.595 316.676 134.178H302.712C302.712 137.973 303.605 141.275 305.4 144.084C307.177 146.902 309.795 149.157 313.227 150.856C315.66 152.001 318.138 152.82 320.659 153.287C323.189 153.762 325.772 154 328.399 154C331.025 154 333.932 153.727 336.742 153.181C339.535 152.635 342.108 151.666 344.472 150.231C346.959 148.672 348.858 146.709 350.136 144.331C351.415 141.953 352.019 139.32 351.957 136.397C351.957 133.949 351.52 131.712 350.636 129.687C349.769 127.652 348.245 125.891 346.092 124.403L346.074 124.447Z" fill="#0E6A8C"/><path d="M375.158 98.9181H374.991V84.3705H360.73V134.908C360.73 140.949 362.271 145.458 365.326 148.434C368.399 151.428 373.468 152.776 380.542 152.503H387.213V140.007H381.96C377.303 140.007 374.983 137.7 374.983 133.094V111.431H396.038V152.503H410.299V98.9181H375.149H375.158Z" fill="#0E6A8C"/><path d="M401.649 73.9969C398.944 73.9969 396.799 74.7807 395.171 76.3481C393.551 77.9068 392.737 79.9675 392.737 82.5476C392.737 85.2687 393.551 87.3821 395.171 88.9056C396.79 90.4378 398.944 91.1951 401.649 91.1951C404.215 91.1951 406.289 90.4378 407.909 88.9056C409.529 87.3909 410.325 85.2687 410.325 82.5476C410.325 79.9675 409.529 77.9068 407.909 76.3481C406.289 74.7895 404.206 73.9969 401.649 73.9969Z" fill="#0E6A8C"/><path d="M433.385 84.3705H419.124V134.908C419.124 140.949 420.665 145.458 423.738 148.434C426.802 151.428 431.862 152.776 438.953 152.503H445.624V140.007H440.363C435.705 140.007 433.385 137.7 433.385 133.094V111.431H446.124V98.9181H433.385V84.3705Z" fill="#0E6A8C"/><path d="M490.965 124.544C490.965 126.648 490.878 128.612 490.711 130.444C490.536 132.275 489.985 133.966 489.048 135.525C488.111 137.215 486.772 138.519 485.047 139.391C483.34 140.28 481.493 140.676 479.54 140.606C477.448 140.676 475.697 140.377 474.287 139.69C472.86 139.021 471.757 138.131 470.943 137.057C470.006 135.701 469.376 134.195 469.078 132.522C468.781 130.875 468.623 129.087 468.623 127.194V98.918H454.362V128.612C454.362 132.134 454.633 135.322 455.176 138.175C455.719 141.028 456.752 143.6 458.31 145.907C459.86 148.214 462.022 150.019 464.789 151.349C467.546 152.67 470.952 153.322 475.005 153.322C478.236 153.322 481.265 152.776 484.101 151.701C486.938 150.609 489.398 148.54 491.473 145.484L492.383 152.503H505.218V98.918H490.974V124.544H490.965Z" fill="#0E6A8C"/><path d="M550.62 124.544C550.62 126.648 550.532 128.612 550.366 130.444C550.191 132.275 549.639 133.966 548.703 135.525C547.766 137.215 546.426 138.519 544.702 139.391C542.995 140.28 541.147 140.676 539.195 140.606C537.103 140.676 535.352 140.377 533.942 139.69C532.515 139.021 531.412 138.131 530.598 137.057C529.661 135.701 529.031 134.195 528.733 132.522C528.435 130.875 528.278 129.087 528.278 127.194V98.918H514.016V128.612C514.016 132.134 514.288 135.322 514.831 138.175C515.373 141.028 516.424 143.6 517.965 145.907C519.514 148.214 521.677 150.019 524.443 151.349C527.201 152.67 530.607 153.322 534.66 153.322C537.891 153.322 540.92 152.776 543.756 151.701C546.593 150.609 549.053 148.54 551.128 145.484L552.038 152.503H564.873V98.918H550.629V124.544H550.62Z" fill="#0E6A8C"/><path d="M587.924 84.3705H573.662V134.908C573.662 140.949 575.203 145.458 578.276 148.434C581.34 151.428 586.401 152.776 593.492 152.503H600.154V140.007H594.901C590.244 140.007 587.924 137.7 587.924 133.094V111.431H600.662V98.9181H587.924V84.3705Z" fill="#0E6A8C"/><path d="M632.258 90.8078C631.093 88.8088 629.509 87.2414 627.504 86.0878C625.499 84.943 623.249 84.3618 620.754 84.3618C618.259 84.3618 616.07 84.9342 614.066 86.0878C612.061 87.2326 610.476 88.8177 609.312 90.8342C608.147 92.8508 607.57 95.0964 607.57 97.5621C607.57 100.028 608.147 102.185 609.312 104.158C610.476 106.13 612.061 107.698 614.066 108.843C616.07 109.987 618.303 110.569 620.754 110.569C623.205 110.569 625.499 109.996 627.504 108.843C629.509 107.698 631.093 106.13 632.258 104.158C633.422 102.185 634 99.9573 634 97.4916C634 95.0259 633.422 92.798 632.258 90.799V90.8078ZM629.815 102.899C628.931 104.492 627.688 105.743 626.103 106.659C624.519 107.574 622.733 108.032 620.745 108.032C618.758 108.032 617.033 107.583 615.449 106.694C613.864 105.805 612.63 104.554 611.737 102.96C610.852 101.366 610.406 99.5699 610.406 97.5709C610.406 95.5719 610.852 93.705 611.737 92.0847C612.621 90.4732 613.864 89.2051 615.449 88.2893C617.033 87.3734 618.802 86.9155 620.745 86.9155C622.689 86.9155 624.519 87.3734 626.103 88.2893C627.688 89.2051 628.922 90.4644 629.815 92.0847C630.699 93.6962 631.146 95.5102 631.146 97.5004C631.146 99.4906 630.699 101.296 629.815 102.89V102.899Z" fill="#0E6A8C"/><path d="M626.007 97.509C626.602 96.7869 626.891 95.8975 626.891 94.8319C626.891 93.4758 626.383 92.3662 625.368 91.5209C624.352 90.6667 623.004 90.244 621.314 90.244H615.799V104.783H618.592V99.6224H620.807L623.853 104.783H626.961L623.538 99.0412C624.597 98.7418 625.42 98.2311 626.007 97.509ZM621.192 97.2536H618.592V92.5952H621.192C622.032 92.5952 622.715 92.789 623.223 93.1676C623.731 93.5463 623.985 94.101 623.985 94.8231C623.985 95.5892 623.722 96.1793 623.197 96.6108C622.671 97.0335 622.006 97.2448 621.201 97.2448L621.192 97.2536Z" fill="#0E6A8C"/></g>
<text x="28" y="118" font-size="11" font-weight="700" fill="#8FA1A6" text-anchor="start" letter-spacing="1.5">HOOFDMENU</text>
<rect x="16" y="138" width="220" height="44" rx="12" fill="#CFF3EA"/>
<rect x="16" y="146" width="4" height="28" rx="2" fill="#38C9A6"/>
<g transform="translate(30,149) scale(0.9166666666666666)" fill="none" stroke="#2F6274" stroke-width="1.96" stroke-linecap="round" stroke-linejoin="round"><path d="M4 4h7v7H4zM13 4h7v7h-7zM4 13h7v7H4zM13 13h7v7h-7z"/></g>
<text x="64" y="166" font-size="15" font-weight="700" fill="#214551" text-anchor="start">Dashboard</text>
<g transform="translate(30,201) scale(0.9166666666666666)" fill="none" stroke="#5E7177" stroke-width="1.96" stroke-linecap="round" stroke-linejoin="round"><path d="M5 4h11a2 2 0 0 1 2 2v14H7a2 2 0 0 1-2-2zM5 4v12M18 16H7"/></g>
<text x="64" y="218" font-size="15" font-weight="500" fill="#17282D" text-anchor="start">Lessen</text>
<g transform="translate(30,253) scale(0.9166666666666666)" fill="none" stroke="#5E7177" stroke-width="1.96" stroke-linecap="round" stroke-linejoin="round"><path d="M16 19v-1a4 4 0 0 0-4-4H7a4 4 0 0 0-4 4v1M9.5 10a3.5 3.5 0 1 0 0-7 3.5 3.5 0 0 0 0 7M21 19v-1a4 4 0 0 0-3-3.8M16 3.2A3.5 3.5 0 0 1 16 10"/></g>
<text x="64" y="270" font-size="15" font-weight="500" fill="#17282D" text-anchor="start">Docenten</text>
<g transform="translate(30,305) scale(0.9166666666666666)" fill="none" stroke="#5E7177" stroke-width="1.96" stroke-linecap="round" stroke-linejoin="round"><path d="M3 8l9-4 9 4-9 4zM7 10v5c0 1.1 2.2 2 5 2s5-.9 5-2v-5M21 8v5"/></g>
<text x="64" y="322" font-size="15" font-weight="500" fill="#17282D" text-anchor="start">Leerlingen</text>
<g transform="translate(30,357) scale(0.9166666666666666)" fill="none" stroke="#5E7177" stroke-width="1.96" stroke-linecap="round" stroke-linejoin="round"><path d="M5 5h14a1 1 0 0 1 1 1v13a1 1 0 0 1-1 1H5a1 1 0 0 1-1-1V6a1 1 0 0 1 1-1zM4 9h16M8 3v4M16 3v4"/></g>
<text x="64" y="374" font-size="15" font-weight="500" fill="#17282D" text-anchor="start">Rooster</text>
<g transform="translate(30,409) scale(0.9166666666666666)" fill="none" stroke="#5E7177" stroke-width="1.96" stroke-linecap="round" stroke-linejoin="round"><path d="M5 19V5M5 19h14M9 16v-5M13 16V8M17 16v-3"/></g>
<text x="64" y="426" font-size="15" font-weight="500" fill="#17282D" text-anchor="start">Analyse</text>
<text x="28" y="458" font-size="11" font-weight="700" fill="#8FA1A6" text-anchor="start" letter-spacing="1.5">ALGEMEEN</text>
<g transform="translate(30,489) scale(0.9166666666666666)" fill="none" stroke="#5E7177" stroke-width="1.96" stroke-linecap="round" stroke-linejoin="round"><path d="M12 15a3 3 0 1 0 0-6 3 3 0 0 0 0 6M19 12a7 7 0 0 0-.1-1l2-1.6-2-3.4-2.4 1a7 7 0 0 0-1.7-1l-.4-2.5H10l-.4 2.5a7 7 0 0 0-1.7 1l-2.4-1-2 3.4L5.6 11a7 7 0 0 0 0 2l-2 1.6 2 3.4 2.4-1a7 7 0 0 0 1.7 1l.4 2.5h4l.4-2.5a7 7 0 0 0 1.7-1l2.4 1 2-3.4-2-1.6c.06-.32.1-.65.1-1z"/></g>
<text x="64" y="506" font-size="15" font-weight="500" fill="#17282D" text-anchor="start">Instellingen</text>
<g transform="translate(30,541) scale(0.9166666666666666)" fill="none" stroke="#5E7177" stroke-width="1.96" stroke-linecap="round" stroke-linejoin="round"><path d="M12 21a9 9 0 1 0 0-18 9 9 0 0 0 0 18M9.5 9.2A2.6 2.6 0 0 1 14.5 10c0 1.7-2.5 2-2.5 3.5M12 17h.01"/></g>
<text x="64" y="558" font-size="15" font-weight="500" fill="#17282D" text-anchor="start">Help</text>
<rect id="promo" x="16" y="744" width="220" height="176" rx="18" fill="#2F6274"/>
<clipPath id="promoclip"><rect x="16" y="744" width="220" height="176" rx="18"/></clipPath>
<g clip-path="url(#promoclip)"><g id="promo_wm" opacity="0.10" transform="translate(142,714) scale(0.42)"><path d="M205.977 138.777C123.042 162.553 68.3993 208.591 37.4391 242.559V0H0V302H37.3158C37.3742 302 37.3742 301.941 37.4391 301.883C42.2886 293.999 97.5936 207.681 215.974 173.779C295.339 151.094 357.006 159.102 381 163.951V126.889C349.436 121.371 286.01 115.911 205.983 138.777H205.977Z" fill="#FFFFFF"/></g></g>
<g id="promo_icon" transform="translate(34,768) scale(0.085)"><path d="M205.977 138.777C123.042 162.553 68.3993 208.591 37.4391 242.559V0H0V302H37.3158C37.3742 302 37.3742 301.941 37.4391 301.883C42.2886 293.999 97.5936 207.681 215.974 173.779C295.339 151.094 357.006 159.102 381 163.951V126.889C349.436 121.371 286.01 115.911 205.983 138.777H205.977Z" fill="#38C9A6"/></g>
<text x="34" y="840" font-size="15" font-weight="700" fill="#FFFFFF" text-anchor="start">JAMP-tip</text>
<text x="34" y="864" font-size="12.5" font-weight="400" fill="#88DFCA" text-anchor="start">Ontdek nieuwe</text>
<text x="34" y="882" font-size="12.5" font-weight="400" fill="#88DFCA" text-anchor="start">lesmodules deze week.</text>
<rect x="34" y="894" width="152" height="0" rx="0" fill="none"/>
<rect x="34" y="894" width="150" height="0" rx="0" fill="none"/>
<rect x="34" y="892" width="152" height="1" rx="0" fill="none"/>
<rect x="34" y="892" width="1" height="1" rx="0" fill="none"/>
<line x1="20" y1="960" x2="232" y2="960" stroke="#E4ECEE" stroke-width="1.5"/>
<g transform="translate(30,978) scale(0.9166666666666666)" fill="none" stroke="#5E7177" stroke-width="1.96" stroke-linecap="round" stroke-linejoin="round"><path d="M14 8V6a2 2 0 0 0-2-2H6a2 2 0 0 0-2 2v12a2 2 0 0 0 2 2h6a2 2 0 0 0 2-2v-2M9 12h12M18 9l3 3-3 3"/></g>
<text x="64" y="994" font-size="15" font-weight="500" fill="#5E7177" text-anchor="start">Uitloggen</text>
</g>
<g id="Topbar">
<rect x="252" y="0" width="1188" height="80" rx="0" fill="#FFFFFF"/>
<line x1="252" y1="80" x2="1440" y2="80" stroke="#E4ECEE" stroke-width="1.5"/>
<rect x="284" y="22" width="360" height="40" rx="12" fill="#EDF3F5" stroke="#E4ECEE" stroke-width="1.5"/>
<g transform="translate(296,30) scale(0.8333333333333334)" fill="none" stroke="#8FA1A6" stroke-width="2.16" stroke-linecap="round" stroke-linejoin="round"><path d="M11 18a7 7 0 1 0 0-14 7 7 0 0 0 0 14M20 20l-4-4"/></g>
<text x="326" y="46" font-size="14" font-weight="400" fill="#8FA1A6" text-anchor="start">Zoeken...</text>
<g><circle cx="1386.0" cy="40.0" r="22.0" fill="#2F6274"/><text x="1386.0" y="45.72" font-size="17.6" font-weight="700" fill="#FFFFFF" text-anchor="middle">PS</text></g>
<text x="1352" y="36" font-size="14.5" font-weight="700" fill="#17282D" text-anchor="end">Phillip Stanton</text>
<text x="1352" y="54" font-size="12.5" font-weight="400" fill="#5E7177" text-anchor="end">Beheerder</text>
<rect x="1064" y="18" width="40" height="40" rx="20" fill="#EDF3F5" stroke="#E4ECEE" stroke-width="1.5"/>
<g transform="translate(1073,27) scale(0.9166666666666666)" fill="none" stroke="#5E7177" stroke-width="1.96" stroke-linecap="round" stroke-linejoin="round"><path d="M12 21a9 9 0 1 0 0-18 9 9 0 0 0 0 18M3 12h18M12 3c2.5 2.4 4 5.6 4 9s-1.5 6.6-4 9c-2.5-2.4-4-5.6-4-9s1.5-6.6 4-9"/></g>
<rect x="1112" y="18" width="40" height="40" rx="20" fill="#EDF3F5" stroke="#E4ECEE" stroke-width="1.5"/>
<g transform="translate(1121,27) scale(0.9166666666666666)" fill="none" stroke="#5E7177" stroke-width="1.96" stroke-linecap="round" stroke-linejoin="round"><path d="M18 8a6 6 0 0 0-12 0c0 7-3 8-3 8h18s-3-1-3-8M13.7 21a2 2 0 0 1-3.4 0"/></g>
<rect x="1160" y="18" width="40" height="40" rx="20" fill="#EDF3F5" stroke="#E4ECEE" stroke-width="1.5"/>
<g transform="translate(1169,27) scale(0.9166666666666666)" fill="none" stroke="#5E7177" stroke-width="1.96" stroke-linecap="round" stroke-linejoin="round"><path d="M4 6h16a1 1 0 0 1 1 1v10a1 1 0 0 1-1 1H4a1 1 0 0 1-1-1V7a1 1 0 0 1 1-1zM3.5 7l8.5 6 8.5-6"/></g>
</g>
<text x="284" y="134" font-size="28" font-weight="700" fill="#17282D" text-anchor="start">Goedemorgen, Phillip 👋</text>
<text x="284" y="162" font-size="15" font-weight="400" fill="#5E7177" text-anchor="start">Hier is het overzicht van Het Leerinstituut, vandaag.</text>
<rect x="1078" y="118" width="150" height="46" rx="12" fill="#FFFFFF" stroke="#E4ECEE" stroke-width="1.5"/>
<g transform="translate(1098,130) scale(0.8333333333333334)" fill="none" stroke="#17282D" stroke-width="2.16" stroke-linecap="round" stroke-linejoin="round"><path d="M12 4v11M8 8l4-4 4 4M5 16v3a1 1 0 0 0 1 1h12a1 1 0 0 0 1-1v-3"/></g>
<text x="1126" y="147" font-size="14.5" font-weight="600" fill="#17282D" text-anchor="start">Exporteren</text>
<rect x="1240" y="118" width="168" height="46" rx="12" fill="#38C9A6" filter="url(#soft)"/>
<g transform="translate(1260,130) scale(0.8333333333333334)" fill="none" stroke="#FFFFFF" stroke-width="2.16" stroke-linecap="round" stroke-linejoin="round"><path d="M12 5v14M5 12h14"/></g>
<text x="1286" y="147" font-size="14.5" font-weight="700" fill="#FFFFFF" text-anchor="start">Nieuwe les</text>
<rect x="284.0" y="190" width="266.0" height="130" rx="18" fill="#FFFFFF" stroke="#E4ECEE" stroke-width="1.5" filter="url(#soft)"/>
<rect x="492.0" y="212" width="40" height="40" rx="12" fill="#38C9A6"/>
<g transform="translate(501.0,221) scale(0.9166666666666666)" fill="none" stroke="#FFFFFF" stroke-width="1.96" stroke-linecap="round" stroke-linejoin="round"><path d="M5 4h11a2 2 0 0 1 2 2v14H7a2 2 0 0 1-2-2zM5 4v12M18 16H7"/></g>
<text x="308.0" y="234" font-size="14" font-weight="500" fill="#5E7177" text-anchor="start">Actieve lessen</text>
<text x="308.0" y="272" font-size="28" font-weight="700" fill="#17282D" text-anchor="start">128</text>
<rect x="308.0" y="286" width="43.32" height="22" rx="11.0" fill="#CFF3EA"/><text x="320.0" y="300.96" font-size="11.5" font-weight="600" fill="#1F8F6E" text-anchor="start">+8%</text>
<text x="361.32" y="301" font-size="11.5" font-weight="400" fill="#8FA1A6" text-anchor="start">t.o.v. vorige maand</text>
<rect x="570.0" y="190" width="266.0" height="130" rx="18" fill="#FFFFFF" stroke="#E4ECEE" stroke-width="1.5" filter="url(#soft)"/>
<rect x="778.0" y="212" width="40" height="40" rx="12" fill="#0E6A8C"/>
<g transform="translate(787.0,221) scale(0.9166666666666666)" fill="none" stroke="#FFFFFF" stroke-width="1.96" stroke-linecap="round" stroke-linejoin="round"><path d="M3 8l9-4 9 4-9 4zM7 10v5c0 1.1 2.2 2 5 2s5-.9 5-2v-5M21 8v5"/></g>
<text x="594.0" y="234" font-size="14" font-weight="500" fill="#5E7177" text-anchor="start">Leerlingen</text>
<text x="594.0" y="272" font-size="28" font-weight="700" fill="#17282D" text-anchor="start">1.842</text>
<rect x="594.0" y="286" width="43.32" height="22" rx="11.0" fill="#CFF3EA"/><text x="606.0" y="300.96" font-size="11.5" font-weight="600" fill="#1F8F6E" text-anchor="start">+5%</text>
<text x="647.32" y="301" font-size="11.5" font-weight="400" fill="#8FA1A6" text-anchor="start">t.o.v. vorige maand</text>
<rect x="856.0" y="190" width="266.0" height="130" rx="18" fill="#FFFFFF" stroke="#E4ECEE" stroke-width="1.5" filter="url(#soft)"/>
<rect x="1064.0" y="212" width="40" height="40" rx="12" fill="#38C9A6"/>
<g transform="translate(1073.0,221) scale(0.9166666666666666)" fill="none" stroke="#FFFFFF" stroke-width="1.96" stroke-linecap="round" stroke-linejoin="round"><path d="M5 19V5M5 19h14M9 16v-5M13 16V8M17 16v-3"/></g>
<text x="880.0" y="234" font-size="14" font-weight="500" fill="#5E7177" text-anchor="start">Voltooiing</text>
<text x="880.0" y="272" font-size="28" font-weight="700" fill="#17282D" text-anchor="start">87%</text>
<rect x="880.0" y="286" width="49.760000000000005" height="22" rx="11.0" fill="#CFF3EA"/><text x="892.0" y="300.96" font-size="11.5" font-weight="600" fill="#1F8F6E" text-anchor="start">+12%</text>
<text x="939.76" y="301" font-size="11.5" font-weight="400" fill="#8FA1A6" text-anchor="start">t.o.v. vorige maand</text>
<rect x="1142.0" y="190" width="266.0" height="130" rx="18" fill="#FFFFFF" stroke="#E4ECEE" stroke-width="1.5" filter="url(#soft)"/>
<rect x="1350.0" y="212" width="40" height="40" rx="12" fill="#FFEDA6"/>
<g transform="translate(1359.0,221) scale(0.9166666666666666)" fill="none" stroke="#214551" stroke-width="1.96" stroke-linecap="round" stroke-linejoin="round"><path d="M5 12l5 5L20 6"/></g>
<text x="1166.0" y="234" font-size="14" font-weight="500" fill="#5E7177" text-anchor="start">Gem. cijfer</text>
<text x="1166.0" y="272" font-size="28" font-weight="700" fill="#17282D" text-anchor="start">7,4</text>
<rect x="1166.0" y="286" width="43.32" height="22" rx="11.0" fill="#CFF3EA"/><text x="1178.0" y="300.96" font-size="11.5" font-weight="600" fill="#1F8F6E" text-anchor="start">+3%</text>
<text x="1219.32" y="301" font-size="11.5" font-weight="400" fill="#8FA1A6" text-anchor="start">t.o.v. vorige maand</text>
<rect x="284" y="344" width="449.6" height="300" rx="18" fill="#FFFFFF" stroke="#E4ECEE" stroke-width="1.5" filter="url(#soft)"/>
<text x="308" y="382" font-size="18" font-weight="700" fill="#17282D" text-anchor="start">Voortgang per maand</text>
<rect x="615.6" y="366" width="96" height="30" rx="8" fill="#EDF3F5" stroke="#E4ECEE" stroke-width="1.5"/>
<text x="629.6" y="386" font-size="12" font-weight="500" fill="#5E7177" text-anchor="start">6 maanden</text>
<g transform="translate(689.6,371) scale(0.75)" fill="none" stroke="#5E7177" stroke-width="2.40" stroke-linecap="round" stroke-linejoin="round"><path d="M6 9l6 6 6-6"/></g>
<rect x="308" y="511.3333333333333" width="34" height="88.66666666666667" rx="7" fill="#38C9A6"/>
<text x="325.0" y="618" font-size="12" font-weight="500" fill="#5E7177" text-anchor="middle">Jan</text>
<rect x="381.52" y="483.8888888888889" width="34" height="116.11111111111111" rx="7" fill="#38C9A6"/>
<text x="398.52" y="618" font-size="12" font-weight="500" fill="#5E7177" text-anchor="middle">Feb</text>
<rect x="455.03999999999996" y="452.22222222222223" width="34" height="147.77777777777777" rx="7" fill="#38C9A6"/>
<text x="472.03999999999996" y="618" font-size="12" font-weight="500" fill="#5E7177" text-anchor="middle">Mrt</text>
<rect x="528.56" y="498.6666666666667" width="34" height="101.33333333333333" rx="7" fill="#38C9A6"/>
<text x="545.56" y="618" font-size="12" font-weight="500" fill="#5E7177" text-anchor="middle">Apr</text>
<rect x="602.0799999999999" y="431.1111111111111" width="34" height="168.88888888888889" rx="7" fill="#2F6274"/>
<text x="619.0799999999999" y="618" font-size="12" font-weight="500" fill="#5E7177" text-anchor="middle">Mei</text>
<rect x="675.5999999999999" y="460.66666666666663" width="34" height="139.33333333333334" rx="7" fill="#38C9A6"/>
<text x="692.5999999999999" y="618" font-size="12" font-weight="500" fill="#5E7177" text-anchor="middle">Jun</text>
<line x1="308" y1="600" x2="709.6" y2="600" stroke="#E4ECEE" stroke-width="1.5"/>
<rect x="757.6" y="344" width="325.2" height="300" rx="18" fill="#FFFFFF" stroke="#E4ECEE" stroke-width="1.5" filter="url(#soft)"/>
<text x="781.6" y="382" font-size="18" font-weight="700" fill="#17282D" text-anchor="start">Cijferverdeling</text>
<rect x="781.6" y="569.6" width="44" height="30.4" rx="7" fill="#E08A6B"/>
<text x="803.6" y="561.6" font-size="12" font-weight="700" fill="#17282D" text-anchor="middle">8%</text>
<text x="803.6" y="618" font-size="12" font-weight="500" fill="#5E7177" text-anchor="middle">1-4</text>
<rect x="859.3333333333334" y="516.4" width="44" height="83.6" rx="7" fill="#FFD000"/>
<text x="881.3333333333334" y="508.4" font-size="12" font-weight="700" fill="#17282D" text-anchor="middle">22%</text>
<text x="881.3333333333334" y="618" font-size="12" font-weight="500" fill="#5E7177" text-anchor="middle">5-6</text>
<rect x="937.0666666666667" y="425.2" width="44" height="174.8" rx="7" fill="#38C9A6"/>
<text x="959.0666666666667" y="417.2" font-size="12" font-weight="700" fill="#17282D" text-anchor="middle">46%</text>
<text x="959.0666666666667" y="618" font-size="12" font-weight="500" fill="#5E7177" text-anchor="middle">7-8</text>
<rect x="1014.8000000000001" y="508.8" width="44" height="91.2" rx="7" fill="#0E6A8C"/>
<text x="1036.8000000000002" y="500.8" font-size="12" font-weight="700" fill="#17282D" text-anchor="middle">24%</text>
<text x="1036.8000000000002" y="618" font-size="12" font-weight="500" fill="#5E7177" text-anchor="middle">9-10</text>
<rect x="1106.8" y="344" width="325.2" height="300" rx="18" fill="#FFFFFF" stroke="#E4ECEE" stroke-width="1.5" filter="url(#soft)"/>
<text x="1130.8" y="382" font-size="18" font-weight="700" fill="#17282D" text-anchor="start">Lesbeoordeling</text>
<path d="M1194.80 462.00 A52 52 0 1 1 1142.90 517.27" stroke="#38C9A6" stroke-width="16" fill="none" stroke-linecap="round"/>
<path d="M1142.80 514.54 A52 52 0 0 1 1172.17 467.18" stroke="#FFD000" stroke-width="16" fill="none" stroke-linecap="round"/>
<path d="M1174.65 466.06 A52 52 0 0 1 1200.24 462.28" stroke="#E08A6B" stroke-width="16" fill="none" stroke-linecap="round"/>
<text x="1194.8" y="510" font-size="26" font-weight="700" fill="#17282D" text-anchor="middle">4,6</text>
<text x="1194.8" y="532" font-size="12" font-weight="400" fill="#5E7177" text-anchor="middle">gem.</text>
<circle cx="1280.8" cy="460" r="6" fill="#38C9A6"/>
<text x="1296.8" y="464" font-size="13" font-weight="500" fill="#17282D" text-anchor="start">Positief</text>
<text x="1296.8" y="482" font-size="14" font-weight="700" fill="#17282D" text-anchor="start">74%</text>
<circle cx="1280.8" cy="510" r="6" fill="#FFD000"/>
<text x="1296.8" y="514" font-size="13" font-weight="500" fill="#17282D" text-anchor="start">Neutraal</text>
<text x="1296.8" y="532" font-size="14" font-weight="700" fill="#17282D" text-anchor="start">18%</text>
<circle cx="1280.8" cy="560" r="6" fill="#E08A6B"/>
<text x="1296.8" y="564" font-size="13" font-weight="500" fill="#17282D" text-anchor="start">Negatief</text>
<text x="1296.8" y="582" font-size="14" font-weight="700" fill="#17282D" text-anchor="start">8%</text>
<rect x="284" y="668" width="651.92" height="300" rx="18" fill="#FFFFFF" stroke="#E4ECEE" stroke-width="1.5" filter="url(#soft)"/>
<text x="308" y="706" font-size="18" font-weight="700" fill="#17282D" text-anchor="start">Vestiging-prestatie</text>
<text x="308" y="746" font-size="12.5" font-weight="700" fill="#5E7177" text-anchor="start">Vestiging</text>
<text x="544.768" y="746" font-size="12.5" font-weight="700" fill="#5E7177" text-anchor="start">Leerlingen</text>
<text x="662.1135999999999" y="746" font-size="12.5" font-weight="700" fill="#5E7177" text-anchor="start">Lessen</text>
<text x="753.3824" y="746" font-size="12.5" font-weight="700" fill="#5E7177" text-anchor="start">Voltooiing</text>
<text x="870.728" y="746" font-size="12.5" font-weight="700" fill="#5E7177" text-anchor="start">Trend</text>
<line x1="308" y1="758" x2="911.92" y2="758" stroke="#E4ECEE" stroke-width="1.5"/>
<rect x="308" y="773" width="73.0" height="24" rx="12.0" fill="#CFF3EA"/><text x="320" y="789.32" font-size="12.5" font-weight="600" fill="#214551" text-anchor="start">Centrum</text>
<text x="544.768" y="788" font-size="14" font-weight="500" fill="#17282D" text-anchor="start">520</text>
<text x="662.1135999999999" y="788" font-size="14" font-weight="500" fill="#17282D" text-anchor="start">42</text>
<text x="753.3824" y="788" font-size="14" font-weight="600" fill="#17282D" text-anchor="start">92%</text>
<g transform="translate(868.728,772) scale(0.75)" fill="none" stroke="#1F8F6E" stroke-width="2.40" stroke-linecap="round" stroke-linejoin="round"><path d="M5 19V5M5 19h14M9 16v-5M13 16V8M17 16v-3"/></g>
<text x="892.728" y="788" font-size="13" font-weight="700" fill="#1F8F6E" text-anchor="start">+9%</text>
<rect x="308" y="819" width="94.0" height="24" rx="12.0" fill="#CFF3EA"/><text x="320" y="835.32" font-size="12.5" font-weight="600" fill="#214551" text-anchor="start">Zuiderpark</text>
<text x="544.768" y="834" font-size="14" font-weight="500" fill="#17282D" text-anchor="start">410</text>
<text x="662.1135999999999" y="834" font-size="14" font-weight="500" fill="#17282D" text-anchor="start">36</text>
<text x="753.3824" y="834" font-size="14" font-weight="600" fill="#17282D" text-anchor="start">85%</text>
<g transform="translate(868.728,818) scale(0.75)" fill="none" stroke="#1F8F6E" stroke-width="2.40" stroke-linecap="round" stroke-linejoin="round"><path d="M5 19V5M5 19h14M9 16v-5M13 16V8M17 16v-3"/></g>
<text x="892.728" y="834" font-size="13" font-weight="700" fill="#1F8F6E" text-anchor="start">+6%</text>
<rect x="308" y="865" width="66.0" height="24" rx="12.0" fill="#CFF3EA"/><text x="320" y="881.32" font-size="12.5" font-weight="600" fill="#214551" text-anchor="start">Escamp</text>
<text x="544.768" y="880" font-size="14" font-weight="500" fill="#17282D" text-anchor="start">360</text>
<text x="662.1135999999999" y="880" font-size="14" font-weight="500" fill="#17282D" text-anchor="start">30</text>
<text x="753.3824" y="880" font-size="14" font-weight="600" fill="#17282D" text-anchor="start">81%</text>
<g transform="translate(868.728,864) scale(0.75)" fill="none" stroke="#1F8F6E" stroke-width="2.40" stroke-linecap="round" stroke-linejoin="round"><path d="M5 19V5M5 19h14M9 16v-5M13 16V8M17 16v-3"/></g>
<text x="892.728" y="880" font-size="13" font-weight="700" fill="#1F8F6E" text-anchor="start">+8%</text>
<rect x="308" y="911" width="52.0" height="24" rx="12.0" fill="#CFF3EA"/><text x="320" y="927.32" font-size="12.5" font-weight="600" fill="#214551" text-anchor="start">Laak</text>
<text x="544.768" y="926" font-size="14" font-weight="500" fill="#17282D" text-anchor="start">280</text>
<text x="662.1135999999999" y="926" font-size="14" font-weight="500" fill="#17282D" text-anchor="start">20</text>
<text x="753.3824" y="926" font-size="14" font-weight="600" fill="#17282D" text-anchor="start">78%</text>
<g transform="translate(868.728,910) scale(0.75)" fill="none" stroke="#1F8F6E" stroke-width="2.40" stroke-linecap="round" stroke-linejoin="round"><path d="M5 19V5M5 19h14M9 16v-5M13 16V8M17 16v-3"/></g>
<text x="892.728" y="926" font-size="13" font-weight="700" fill="#1F8F6E" text-anchor="start">+4%</text>
<rect x="959.92" y="668" width="448.08" height="300" rx="18" fill="#FFFFFF" stroke="#E4ECEE" stroke-width="1.5" filter="url(#soft)"/>
<text x="983.92" y="706" font-size="18" font-weight="700" fill="#17282D" text-anchor="start">Beste lestijden</text>
<text x="987.92" y="766" font-size="12" font-weight="600" fill="#5E7177" text-anchor="middle">Ma</text>
<rect x="1019.92" y="746" width="44.76" height="30" rx="6" fill="#CFE9D9"/>
<rect x="1068.68" y="746" width="44.76" height="30" rx="6" fill="#92DCC4"/>
<rect x="1117.44" y="746" width="44.76" height="30" rx="6" fill="#B5E4D0"/>
<rect x="1166.2" y="746" width="44.76" height="30" rx="6" fill="#86DAC0"/>
<rect x="1214.96" y="746" width="44.76" height="30" rx="6" fill="#82D9BF"/>
<rect x="1263.72" y="746" width="44.76" height="30" rx="6" fill="#F1F1E5"/>
<rect x="1312.48" y="746" width="44.76" height="30" rx="6" fill="#FCF3E9"/>
<rect x="1361.24" y="746" width="44.76" height="30" rx="6" fill="#58CFB1"/>
<text x="987.92" y="802" font-size="12" font-weight="600" fill="#5E7177" text-anchor="middle">Di</text>
<rect x="1019.92" y="782" width="44.76" height="30" rx="6" fill="#CBE8D8"/>
<rect x="1068.68" y="782" width="44.76" height="30" rx="6" fill="#D0E9DA"/>
<rect x="1117.44" y="782" width="44.76" height="30" rx="6" fill="#38C9A6"/>
<rect x="1166.2" y="782" width="44.76" height="30" rx="6" fill="#A1DFCA"/>
<rect x="1214.96" y="782" width="44.76" height="30" rx="6" fill="#58D0B1"/>
<rect x="1263.72" y="782" width="44.76" height="30" rx="6" fill="#A0DFC9"/>
<rect x="1312.48" y="782" width="44.76" height="30" rx="6" fill="#7FD8BE"/>
<rect x="1361.24" y="782" width="44.76" height="30" rx="6" fill="#E1EDDF"/>
<text x="987.92" y="838" font-size="12" font-weight="600" fill="#5E7177" text-anchor="middle">Wo</text>
<rect x="1019.92" y="818" width="44.76" height="30" rx="6" fill="#80D8BE"/>
<rect x="1068.68" y="818" width="44.76" height="30" rx="6" fill="#52CEAE"/>
<rect x="1117.44" y="818" width="44.76" height="30" rx="6" fill="#96DDC6"/>
<rect x="1166.2" y="818" width="44.76" height="30" rx="6" fill="#6BD4B7"/>
<rect x="1214.96" y="818" width="44.76" height="30" rx="6" fill="#79D7BC"/>
<rect x="1263.72" y="818" width="44.76" height="30" rx="6" fill="#F2F1E5"/>
<rect x="1312.48" y="818" width="44.76" height="30" rx="6" fill="#68D3B6"/>
<rect x="1361.24" y="818" width="44.76" height="30" rx="6" fill="#89DAC1"/>
<text x="987.92" y="874" font-size="12" font-weight="600" fill="#5E7177" text-anchor="middle">Do</text>
<rect x="1019.92" y="854" width="44.76" height="30" rx="6" fill="#C3E7D5"/>
<rect x="1068.68" y="854" width="44.76" height="30" rx="6" fill="#F8F2E7"/>
<rect x="1117.44" y="854" width="44.76" height="30" rx="6" fill="#52CEAF"/>
<rect x="1166.2" y="854" width="44.76" height="30" rx="6" fill="#A0DFC9"/>
<rect x="1214.96" y="854" width="44.76" height="30" rx="6" fill="#6FD5B9"/>
<rect x="1263.72" y="854" width="44.76" height="30" rx="6" fill="#50CEAE"/>
<rect x="1312.48" y="854" width="44.76" height="30" rx="6" fill="#70D5B9"/>
<rect x="1361.24" y="854" width="44.76" height="30" rx="6" fill="#47CCAB"/>
<text x="987.92" y="910" font-size="12" font-weight="600" fill="#5E7177" text-anchor="middle">Vr</text>
<rect x="1019.92" y="890" width="44.76" height="30" rx="6" fill="#B0E3CF"/>
<rect x="1068.68" y="890" width="44.76" height="30" rx="6" fill="#5FD1B3"/>
<rect x="1117.44" y="890" width="44.76" height="30" rx="6" fill="#A6E0CB"/>
<rect x="1166.2" y="890" width="44.76" height="30" rx="6" fill="#44CBAA"/>
<rect x="1214.96" y="890" width="44.76" height="30" rx="6" fill="#50CEAE"/>
<rect x="1263.72" y="890" width="44.76" height="30" rx="6" fill="#EBEFE3"/>
<rect x="1312.48" y="890" width="44.76" height="30" rx="6" fill="#E3EEE0"/>
<rect x="1361.24" y="890" width="44.76" height="30" rx="6" fill="#D3EADB"/>
<text x="1042.3" y="940" font-size="10.5" font-weight="500" fill="#8FA1A6" text-anchor="middle">8u</text>
<text x="1091.0600000000002" y="940" font-size="10.5" font-weight="500" fill="#8FA1A6" text-anchor="middle">9u</text>
<text x="1139.8200000000002" y="940" font-size="10.5" font-weight="500" fill="#8FA1A6" text-anchor="middle">10u</text>
<text x="1188.5800000000002" y="940" font-size="10.5" font-weight="500" fill="#8FA1A6" text-anchor="middle">11u</text>
<text x="1237.3400000000001" y="940" font-size="10.5" font-weight="500" fill="#8FA1A6" text-anchor="middle">12u</text>
<text x="1286.1000000000001" y="940" font-size="10.5" font-weight="500" fill="#8FA1A6" text-anchor="middle">13u</text>
<text x="1334.8600000000001" y="940" font-size="10.5" font-weight="500" fill="#8FA1A6" text-anchor="middle">14u</text>
<text x="1383.6200000000001" y="940" font-size="10.5" font-weight="500" fill="#8FA1A6" text-anchor="middle">15u</text>
</svg>