<svg xmlns="http://www.w3.org/2000/svg" viewBox="0 0 96 96" role="img" aria-label="Beheersingsgericht leren">
  <style>
    /* Pas de kleur/strokebreedte hier in ťťn plek aan. */
    .ico { fill: none; stroke: #0e4e5e; stroke-width: 2.4; stroke-linecap: round; stroke-linejoin: round; }
    .ico .occlude { fill: #ffffff; stroke: #0e4e5e; }
  </style>
  <g class="ico">
    <path d="M30 28 L38 41 M58 41 L63 30 M71 34 V47 M59 51 L62 55 M37 64 L41 57"/>
    <circle class="occlude" cx="23" cy="24" r="6"/>
    <circle cx="23" cy="24" r="2.4"/>
    <path d="M29 24 H32 M23 18 V15 M17 24 H14 M23 30 V33 M27.2 19.8 L29.3 17.7 M18.8 19.8 L16.7 17.7 M18.8 28.2 L16.7 30.3 M27.2 28.2 L29.3 30.3"/>
    <circle class="occlude" cx="71" cy="24" r="10.5"/>
    <path d="M65.8 24.5 l3.4 3.4 l6.2 -7.4"/>
    <circle class="occlude" cx="47" cy="47" r="12"/>
    <circle cx="47" cy="43.5" r="3.4"/>
    <path d="M41.5 52.5 a5.5 5.5 0 0 1 11 0"/>
    <circle class="occlude" cx="71" cy="58" r="10.5"/>
    <path d="M66.5 58 H75.5 M71.5 54 l4 4 l-4 4"/>
    <rect class="occlude" x="18" y="62" width="18" height="21" rx="2.5"/>
    <rect class="occlude" x="23.5" y="59.5" width="7" height="4" rx="1.2"/>
    <path d="M22 70 H32 M22 75 H29"/>
    <path class="occlude" d="M37 65 l3 3 l-9 9 l-3 -3 z"/>
    <path class="occlude" d="M28 77 l-3 5.5 l5.5 -2.5 z"/>
  </g>
</svg>
