<svg xmlns="http://www.w3.org/2000/svg" viewBox="0 0 96 96" role="img" aria-label="Doelgericht leren">
  <style>
    /* Pas de kleur/strokebreedte hier in ťťn plek aan. */
    .ico { fill: none; stroke: #0e4e5e; stroke-width: 2.4; stroke-linecap: round; stroke-linejoin: round; }
    .ico .occlude { fill: #ffffff; stroke: #0e4e5e; }
  </style>
  <g class="ico">
    <line x1="15" y1="79" x2="82" y2="79"/>
    <rect x="45" y="56" width="10" height="23"/>
    <rect x="58" y="44" width="10" height="35"/>
    <rect x="71" y="32" width="10" height="47"/>
    <path d="M76 15 L77.5 19 L81.7 19.2 L78.4 21.8 L79.5 25.9 L76 23.5 L72.5 25.9 L73.6 21.8 L70.3 19.2 L74.5 19 Z"/>
    <circle cx="27" cy="49" r="4"/>
    <path d="M27 53 V62 M27 55 l7 -5 M27 62 l-3 7 M27 62 l3 7"/>
    <path d="M35 50 L42 43 M42 43 l-4.2 0.4 M42 43 l-0.4 4.2"/>
  </g>
</svg>
