<svg xmlns="http://www.w3.org/2000/svg" viewBox="0 0 96 96" role="img" aria-label="Zelfregulerend leren">
  <style>
    /* Pas de kleur/strokebreedte hier in ťťn plek aan. */
    .ico { fill: none; stroke: #0e4e5e; stroke-width: 2.4; stroke-linecap: round; stroke-linejoin: round; }
    .ico .occlude { fill: #ffffff; stroke: #0e4e5e; }
  </style>
  <g class="ico">
    <circle cx="49" cy="47" r="31" stroke-dasharray="0.5 6"/>
    <path d="M49 16 l-5 -2.5 M49 16 l-2.5 5"/>
    <path class="occlude" d="M27 40 l11 -4 l11 4 l-11 4 z"/>
    <path d="M49 40 V46"/>
    <circle class="occlude" cx="38" cy="48" r="5"/>
    <path class="occlude" d="M28 65 a10 10 0 0 1 20 0"/>
    <path d="M64 24 c-4 -2 -8 0 -8 4 c-3 0 -4 4 -1 6 c-1 3 2 5 5 4 c1 2 4 2 5 0"/>
    <path d="M64 24 c4 -2 8 0 8 4 c3 0 4 4 1 6 c1 3 -2 5 -5 4 c-1 2 -4 2 -5 0"/>
    <path d="M64 24 V38"/>
    <path d="M59 30 q3 1 1 4 M69 30 q-3 1 -1 4"/>
  </g>
</svg>
