<svg xmlns="http://www.w3.org/2000/svg" viewBox="0 0 96 96" role="img" aria-label="Effectieve feedback">
  <style>
    /* Pas de kleur/strokebreedte hier in ťťn plek aan. */
    .ico { fill: none; stroke: #0e4e5e; stroke-width: 2.4; stroke-linecap: round; stroke-linejoin: round; }
    .ico .occlude { fill: #ffffff; stroke: #0e4e5e; }
  </style>
  <g class="ico">
    <ellipse cx="48" cy="28" rx="27" ry="15"/>
    <path class="occlude" d="M40 40 l-2 8 l10 -5 z"/>
    <path d="M33 31 V27 h3.5 V31 z"/>
    <path d="M36.5 31 h6.5 q2 0 2.3 -2 l0.6 -3.5 q0.3 -2 -1.8 -2 h-4 l0.8 -3.2 q0.4 -2 -1.4 -2.4 q-1 -0.2 -1.4 0.8 l-1.6 4 l-0.6 0.6 z"/>
    <path d="M59 28 c-2 -3 -6.5 -1.5 -6.5 1.5 c0 3.2 4 5.2 6.5 7.2 c2.5 -2 6.5 -4 6.5 -7.2 c0 -3 -4.5 -4.5 -6.5 -1.5 z"/>
    <path d="M49 31 L49.9 33.4 L52.5 33.5 L50.4 35.1 L51.2 37.6 L49 36.1 L46.8 37.6 L47.6 35.1 L45.5 33.5 L48.1 33.4 Z"/>
    <circle cx="27" cy="66" r="4"/>
    <path d="M20 84 v-3 a7 7 0 0 1 14 0 v3"/>
    <circle cx="69" cy="66" r="4"/>
    <path d="M62 84 v-3 a7 7 0 0 1 14 0 v3"/>
    <path d="M41 65 H55 M52 62 l3 3 l-3 3"/>
    <path d="M55 72 H41 M44 69 l-3 3 l3 3"/>
  </g>
</svg>
