<svg xmlns="http://www.w3.org/2000/svg" viewBox="0 0 96 96" role="img" aria-label="Bevorderen van een positief leerklimaat">
  <style>
    /* Pas de kleur/strokebreedte hier in ťťn plek aan. */
    .ico { fill: none; stroke: #0e4e5e; stroke-width: 2.4; stroke-linecap: round; stroke-linejoin: round; }
    .ico .occlude { fill: #ffffff; stroke: #0e4e5e; }
  </style>
  <g class="ico">
    <rect x="15" y="20" width="22" height="15" rx="6"/>
    <path class="occlude" d="M26 35 l1 5 l5 -5 z"/>
    <path d="M22 27.5 h8 M26 23.5 v8"/>
    <rect x="59" y="20" width="22" height="15" rx="6"/>
    <path class="occlude" d="M70 35 l-1 5 l-5 -5 z"/>
    <path d="M66 27.5 h8"/>
    <circle cx="48" cy="46" r="5"/>
    <path class="occlude" d="M39 68 v-3 a9 9 0 0 1 18 0 v3 z"/>
    <path class="occlude" d="M36 68 h24 l-2 8 h-20 z"/>
    <circle class="occlude" cx="24" cy="74" r="3.4"/>
    <path class="occlude" d="M18 88 v-3 a6 6 0 0 1 12 0 v3"/>
    <circle class="occlude" cx="72" cy="74" r="3.4"/>
    <path class="occlude" d="M66 88 v-3 a6 6 0 0 1 12 0 v3"/>
    <circle class="occlude" cx="38" cy="77" r="3.4"/>
    <path class="occlude" d="M32 90 v-3 a6 6 0 0 1 12 0 v3"/>
    <circle class="occlude" cx="58" cy="77" r="3.4"/>
    <path class="occlude" d="M52 90 v-3 a6 6 0 0 1 12 0 v3"/>
  </g>
</svg>
