<svg xmlns="http://www.w3.org/2000/svg" viewBox="0 0 96 96" role="img" aria-label="Flexibel differentiÎren">
  <style>
    /* Pas de kleur/strokebreedte hier in ÈÈn plek aan. */
    .ico { fill: none; stroke: #0e4e5e; stroke-width: 2.4; stroke-linecap: round; stroke-linejoin: round; }
    .ico .occlude { fill: #ffffff; stroke: #0e4e5e; }
  </style>
  <g class="ico">
    <circle class="occlude" cx="22" cy="50" r="5"/>
    <path class="occlude" d="M13 74 v-3 a9 9 0 0 1 18 0 v3"/>
    <circle class="occlude" cx="74" cy="50" r="5"/>
    <path class="occlude" d="M65 74 v-3 a9 9 0 0 1 18 0 v3"/>
    <circle class="occlude" cx="34" cy="40" r="5.5"/>
    <path class="occlude" d="M24 66 v-3 a10 10 0 0 1 20 0 v3"/>
    <circle class="occlude" cx="62" cy="40" r="5.5"/>
    <path class="occlude" d="M52 66 v-3 a10 10 0 0 1 20 0 v3"/>
    <circle class="occlude" cx="48" cy="52" r="7"/>
    <path class="occlude" d="M36 84 v-4 a12 12 0 0 1 24 0 v4"/>
  </g>
</svg>
